<?xml version="1.0" encoding="utf-8"?>
<!-- Generator: Adobe Illustrator 25.2.0, SVG Export Plug-In . SVG Version: 6.00 Build 0)  -->
<svg version="1.1" id="Warstwa_2" xmlns="http://www.w3.org/2000/svg" xmlns:xlink="http://www.w3.org/1999/xlink" x="0px" y="0px"
	 viewBox="0 0 837.5 223.4" style="enable-background:new 0 0 837.5 223.4;" xml:space="preserve">
<style type="text/css">
	.st0{fill:#FFFFFF;}
	.st1{fill:#E5211C;}
</style>
<g>
	<rect x="276.7" y="54.8" class="st0" width="9.2" height="9.2"/>
	<rect x="293.5" y="54.8" class="st0" width="9.2" height="9.2"/>
	<rect x="276.7" y="71.6" class="st0" width="9.2" height="9.2"/>
	<rect x="293.5" y="71.6" class="st0" width="9.2" height="9.2"/>
</g>
<g>
	<rect x="172" y="54.8" class="st0" width="9.2" height="9.2"/>
	<rect x="188.5" y="54.8" class="st0" width="9.2" height="9.2"/>
	<rect x="172" y="71.6" class="st0" width="9.2" height="9.2"/>
	<rect x="188.5" y="71.6" class="st0" width="9.2" height="9.2"/>
</g>
<path class="st1" d="M197.7,12.2L197.7,12.2L187,0l0,0l0,0l-12.2,12.2l0,0l-56.1,56.3V51.7v-9.2h-9.2h-29h-7.6l0,0v73.1l0,0L0,187
	l12.2,10.7L187,22.9l38,38l12.2-12.2L197.7,12.2z M80.5,51.7h29v25.7l-29,29V51.7z"/>
<polygon class="st1" points="251,106.5 251,106.5 395.4,106.5 381.7,92.7 381.7,92.7 304.2,16.8 304.2,16.8 293.5,4.6 293.5,4.6 
	293.5,4.6 281.3,16.8 281.3,16.8 141.4,158.2 152.1,168.9 293.5,27.3 354.4,89.7 266.2,89.7 "/>
<polygon class="st0" points="347.5,128.4 324.6,145.2 814.8,145.2 837.5,128.4 "/>
<polygon class="st0" points="331,128.4 245.4,128.4 222.4,145.2 308,145.2 "/>
<g>
	<path class="st1" d="M493.5,84.6c0,2.8-0.5,5.4-1.5,7.9c-1,2.3-2.3,4.6-4.1,6.1c-1.8,1.8-3.8,3.1-6.1,4.1c-2.3,1-5.1,1.5-7.9,1.5
		h-51v-14h51c1.8,0,3.1-0.5,4.1-1.5c1-1,1.5-2.3,1.5-4.1V27.3h14V84.6z"/>
	<path class="st1" d="M579.1,104.2h-50.2c-2,0-4.1-0.3-6.4-1s-4.3-1.8-6.4-3.3c-2-1.5-3.6-3.6-4.8-6.1c-1.3-2.5-2-5.6-2-9.2V34.4
		c0-1,0.3-1.8,0.5-2.8c0.3-0.8,0.8-1.5,1.5-2.3c0.5-0.8,1.3-1,2.3-1.5c0.8-0.3,1.8-0.5,2.8-0.5h62.7v14h-55.8v43.3
		c0,1.8,0.5,3.3,1.5,4.1c1,1,2.3,1.5,4.3,1.5h50.2v14H579.1z M572.7,72.9h-44.1v-14h44.1V72.9z"/>
	<path class="st1" d="M662.9,104.2h-63.4c-1,0-2-0.3-2.8-0.5c-0.8-0.3-1.5-0.8-2.3-1.5c-0.8-0.8-1-1.3-1.5-2.3
		c-0.3-0.8-0.5-1.8-0.5-2.8V27.3h14v62.9h56.6V104.2z"/>
</g>
<path class="st0" d="M466.7,195.4c0,4.1-1.2,7.8-3.6,11.2c-2.4,3.4-5.8,6.4-10.1,8.9c-4.3,2.5-9.4,4.4-15.3,5.8s-12.3,2.1-19.2,2.1
	h-28.3c-6.9,0-13.3-0.7-19.2-2.1s-11-3.3-15.3-5.8c-4.3-2.5-7.7-5.4-10.1-8.9c-2.4-3.4-3.7-7.2-3.7-11.2v-12.8c0-4,1.2-7.8,3.7-11.2
	s5.8-6.4,10.1-8.9c4.3-2.5,9.4-4.4,15.3-5.8s12.3-2.1,19.2-2.1h28.3c6.9,0,13.3,0.7,19.2,2.1s11,3.3,15.3,5.8
	c4.3,2.5,7.6,5.4,10.1,8.9c2.4,3.4,3.6,7.2,3.6,11.2V195.4z M445.8,182.6c0-2.4-0.7-4.6-2-6.5c-1.3-1.9-3.2-3.6-5.6-5
	c-2.4-1.4-5.3-2.5-8.6-3.2c-3.4-0.8-7-1.1-11.1-1.1h-28.3c-4.1,0-7.8,0.4-11.2,1.1c-3.4,0.8-6.2,1.8-8.7,3.2c-2.4,1.4-4.3,3-5.6,5
	c-1.3,1.9-2,4.1-2,6.5v12.8c0,2.4,0.7,4.6,2,6.5c1.3,1.9,3.2,3.6,5.6,5c2.4,1.4,5.3,2.5,8.7,3.2c3.4,0.8,7.1,1.1,11.2,1.1h28.2
	c4.1,0,7.8-0.4,11.2-1.1c3.4-0.8,6.2-1.8,8.7-3.2c2.4-1.4,4.3-3,5.6-5c1.3-1.9,2-4.1,2-6.5V182.6z"/>
<path class="st0" d="M621.8,222.4h-21.1v-39.8l-37.1,37.8c-0.9,1-2.2,1.7-3.8,2.2c-1.6,0.5-3.4,0.7-5.3,0.7c-1.8,0-3.5-0.2-5.1-0.7
	c-1.6-0.5-2.8-1.2-3.7-2.2l-37.3-37.8v39.8h-20.9v-61.7c0-1.4,0.7-2.6,2.1-3.7c1.4-1.1,3.3-1.8,5.6-2.2c1.1-0.2,2.3-0.2,3.4-0.2
	c1.1,0,2.2,0.2,3.3,0.4c1,0.2,2,0.6,2.9,1c0.9,0.4,1.6,0.9,2.2,1.5l47.7,48l47.7-48c1.2-1.2,2.9-2,5.1-2.5c2.2-0.5,4.4-0.6,6.8-0.2
	c2.3,0.4,4.1,1.1,5.6,2.2s2.2,2.3,2.2,3.7V222.4z"/>
<path class="st0" d="M667.2,222.4h-20.9v-66.8h20.9V222.4z"/>
<path class="st0" d="M744.4,179.5l35.3-23.9h28.6l-49.7,33.5l49.4,33.3h-28.4l-35.1-23.7l-34.9,23.7H681l49.3-33.3l-49.4-33.5h28.3
	L744.4,179.5z"/>
<rect x="264.7" y="155.6" class="st0" width="20.9" height="66.8"/>
</svg>
